<svg xmlns="http://www.w3.org/2000/svg" width="32" height="32" viewBox="0 0 32 32">
  <!-- Polygonal Lasso badge at bottom-right with white halo -->
  <g transform="translate(9, 7.5) scale(0.85)">
    <!-- White halo -->
    <path d="M 3.3 4.6 L 14.6 10.2 L 20.7 2.4 L 20.7 14.2 L 13.5 16.4" fill="none" stroke="#ffffff" stroke-width="3.2" stroke-linecap="round" stroke-linejoin="round"/>
    <ellipse cx="10.4" cy="16.9" rx="3.1" ry="2.2" transform="rotate(-15 10.4 16.9)" fill="none" stroke="#ffffff" stroke-width="3.2"/>
    <path d="M 3.3 4.6 L 10.8 18.7 L 8.9 22.1" fill="none" stroke="#ffffff" stroke-width="3.2" stroke-linecap="round" stroke-linejoin="round"/>
    <!-- Black core -->
    <path d="M 3.3 4.6 L 14.6 10.2 L 20.7 2.4 L 20.7 14.2 L 13.5 16.4" fill="none" stroke="#000000" stroke-width="1.4" stroke-linecap="round" stroke-linejoin="round"/>
    <ellipse cx="10.4" cy="16.9" rx="3.1" ry="2.2" transform="rotate(-15 10.4 16.9)" fill="none" stroke="#000000" stroke-width="1.4"/>
    <path d="M 3.3 4.6 L 10.8 18.7 L 8.9 22.1" fill="none" stroke="#000000" stroke-width="1.4" stroke-linecap="round" stroke-linejoin="round"/>
  </g>
  <!-- Selection tool arrow from apps/vector (scaled smaller) -->
  <path d="M 1 1 L 1 13.6 L 4.5 10.5 L 7.6 16.1 L 9.9 14.8 L 6.8 9.3 L 11.4 9.3 Z" fill="#000000" stroke="#ffffff" stroke-width="1.2" stroke-linejoin="round"/>
</svg>
